<svg xmlns="http://www.w3.org/2000/svg" xmlns:xlink="http://www.w3.org/1999/xlink" width="916.432" height="848" viewBox="0 0 916.432 848"><defs><clipPath id="a"><rect width="916.432" height="848" transform="translate(283 85)" fill="none" stroke="#707070" stroke-width="1"/></clipPath></defs><g transform="translate(-283 -85)" clip-path="url(#a)"><g transform="matrix(1, -0.017, 0.017, 1, 283.456, -81.068)"><g transform="matrix(-0.208, 0.978, -0.978, -0.208, 611.78, 1674.752)"><path d="M104.2,20.514,96.243,92.282,0,52.346,42.439,0Z" transform="matrix(-0.358, -0.934, 0.934, -0.358, 37.341, 166.632)" fill="#f0f0f0"/><path d="M230.361,43.028s15.192-32,28.388-24.146-.429,99.062-.429,99.062-11.246,16.231-40.862,13.932c-1.883-.145-4.191-.421-6.6-.817-9.753-1.6-24.067-3.834-40.3-6.166-40.289-5.789-91.609-12.024-106.9-9.383-21.324,3.683-77.34-23.435-60.567-56.842,0,0,8.494-18.926,44.6-16.172S152.251,4.777,152.251,4.777s10.2-7.067,13.068-4.01,5.123,32.751,5.123,32.751S208.375,60,230.361,43.028Z" transform="matrix(-0.358, -0.934, 0.934, -0.358, 107.324, 294.494)" fill="#b18628"/><path d="M212.1,68.77c-34.87-6.883-127.431-23.742-149.364-20.83C43.3,50.518-2.7,27.965.124,0,17.415,11.958,75.036,31.288,263.9,42.83c-1.548,8.773-2.724,14.551-2.724,14.551s-10.726,13.809-36.421,12.9A79.734,79.734,0,0,1,212.1,68.77Z" transform="matrix(-0.358, -0.934, 0.934, -0.358, 174.867, 271.572)" fill="#fff"/></g><g transform="translate(704.69 1246.548) rotate(11)"><path d="M108.879,18.778l-8.311,65.7L0,47.918,44.346,0Z" transform="matrix(-0.358, -0.934, 0.934, -0.358, 39.019, 174.049)" fill="#f0f0f0"/><path d="M230.361,43.028s15.192-32,28.388-24.146-.429,99.062-.429,99.062-11.246,16.231-40.862,13.932c-1.883-.145-4.191-.421-6.6-.817-9.753-1.6-24.067-3.834-40.3-6.166-40.289-5.789-91.609-12.024-106.9-9.383-21.324,3.683-77.34-23.435-60.567-56.842,0,0,8.494-18.926,44.6-16.172S152.251,4.777,152.251,4.777s10.2-7.067,13.068-4.01,5.123,32.751,5.123,32.751S208.375,60,230.361,43.028Z" transform="matrix(-0.358, -0.934, 0.934, -0.358, 97.793, 294.494)" fill="#b18628"/><path d="M212.1,68.77c-34.87-6.883-127.431-23.742-149.364-20.83C43.3,50.518-2.7,27.965.124,0,17.415,11.958,75.036,31.288,263.9,42.83c-1.548,8.773-2.724,14.551-2.724,14.551s-10.726,13.809-36.421,12.9A79.734,79.734,0,0,1,212.1,68.77Z" transform="matrix(-0.358, -0.934, 0.934, -0.358, 165.336, 271.572)" fill="#fff"/></g><g transform="translate(572.966 222.923)"><g transform="translate(0 0)"><ellipse cx="98.485" cy="98.485" rx="98.485" ry="98.485" transform="translate(37.583 0) rotate(11)" fill="#f8caca"/><path d="M0,33.057S16.21,150.593,12.157,157.939s97.26-80.806,97.26-80.806S72.945,25.711,81.05,0Z" transform="translate(105.491 128.575) rotate(11)" fill="#f8caca"/></g></g><path d="M373.226,629.662l-22.287,31.9s6.918,16.7-4.5,26.6,1.834,14.072,0,40.273,13.833-2.208,16.919-4.318-8.6-36.255,0-46.13S373.226,629.662,373.226,629.662Z" transform="translate(148.609 293.333)" fill="#f8caca"/><path d="M578.241,268.009c-2.3-6.735,12.424,16.658,14.91,17.971S464.67,355.526,464.67,355.526s-1.17-8.345-4.727-13.746,4.727-12.036,4.727-12.036S580.541,274.743,578.241,268.009Z" transform="translate(190.586 174.575)" fill="#fff"/><path d="M331.252,1011.109s2.521,23.835,5.814,40.8-9.648,109.466-11.572,122.8-7.708,11.321-6.917,64.118,106.742,0,106.742,0l35.745-115.493s13.748-127.82,9.832-133.615S331.252,1011.109,331.252,1011.109Z" transform="translate(135.034 433.211)" fill="#233241"/><path d="M325.247,1006.832c-1.165,2.916,3.588,7.612,3.588,7.612s136.465-23.738,138.59-22.957-.789-8.551-.789-8.551S326.411,1003.916,325.247,1006.832Z" transform="translate(137.923 431.561)" fill="#202d3b"/><path d="M636.728,802.095a1.872,1.872,0,0,1-.043,2.471c-4.162,5.255-39.777,49.117-46.294,50.311-7,1.283-40.031,33.442-40.031,33.442s-5.027,23.433-8.15,24.839-8.516,40.031-6.344,41.311-5.289,27.326-5.289,27.326l19.784,7.315,36.99-4.054,18.172-3.261h11.521s34.284,103.275,3.432,115.688-89.144,7.3-99.885,3.759-145.6,25.078-154.249,24.827S223.328,1151.5,208.485,1071.44s98.782-145.345,125.948-198.427,24.229-54.463,41.825-70.808,41.519-73.715,41.519-73.715l215.658,55.246,3.38,13.349Z" transform="translate(85.992 319.127)" fill="#233241"/><path d="M475.15,939.373c22.9,1.725-157.855,38.008-164.51,32.464s153.336-120.569,186.106-129.62-152.073,109.426-157.9,121.4S452.246,937.648,475.15,939.373Z" transform="translate(131.481 368.388)" fill="#202d3b"/><path d="M733.766,281.289c4.434-1.783,65.709,53.512,69.475,66.816s24.764,95.846,18.992,108.621-23.767,25.431-18.992,30.667-.894,46.824-11.428,56.541,11.428,19.707,11.428,19.707H791.813v23.787h-8.7v24.157l-6.676,9.358v39.372H764.967v17.024l-18.406,29.234s-58.715,199.806-43.126,206.194-46.381,14.6-46.381,14.6l-111.931-14.6-41.772-17.122-48.174-19.128a10.647,10.647,0,0,1-2.494-.8c-.439.077-.458-.713-3.7-21.077-6.277-39.389,17.593-110.973,17.593-110.973l25.109-83.349s39.843-238.757,42.485-241.851c2.008-2.351,44.344-56.953,64.736-83.267,6.2-8,3.7-5.183,3.7-5.183s.92,3.252,8.562,2.834,22.006-4.509,22.006-4.509S729.332,283.072,733.766,281.289Z" transform="translate(47.993 180.019)" fill="#1473e6"/><path d="M579.458,541.372c100.04,30.288-59.694-36.016-60.8-29.38S479.418,511.083,579.458,541.372Z" transform="translate(215.337 234.99)" fill="#1267cf"/><path d="M517.293,492.966c10.016,7.708,101.4-.264,101.4-.264s-11.95-2.721-29.221-7.625-34.3,6.031-47.6,0-16.415-3.175-24.417-1.257S507.277,485.257,517.293,492.966Z" transform="translate(223.072 228.676)" fill="#1267cf"/><path d="M386.293,833.024c-48.656,11.137,69.3,28.445,69.3,28.445S653.978,620.7,641.817,616.179,565.943,578.4,565.943,578.4,434.949,821.887,386.293,833.024Z" transform="translate(159.708 252.411)" fill="#f8caca"/><path d="M597.515,46.113c.81-7.737-14.489,79.505-14.489,79.505s12.755,61.854,14.489,66.423-33.941-79.73-33.941-79.73S596.7,53.85,597.515,46.113Z" transform="translate(141.479 502.925)" fill="#1267cf"/><g transform="matrix(0.998, 0.07, -0.07, 0.998, 582.696, 181.923)"><path d="M148.9,165.587c-.449-12.459-6.585-27.469-19.351-27.974-6.651-.265-8.524,3.766-14.613,6.5-11.925,5.29-16.354,3.3-28.741-.5-14.559-4.54-27.82-16.481-38.9-26.683l-15.745-13c-3.638-3.167-19.453-4.873-22.5-8.593C-2.348,80.579-2.574,59.168,6.1,42.453A77.385,77.385,0,0,1,49.21,7.132,144.458,144.458,0,0,1,105.743.477c33.524,1.819,54.942-5.589,84.8,9.122,19.5,9.632,50.452,40.027,54.157,61.123,2.883,16.42-2.684,34.269-10.02,49.472L203.8,170.953c-4.712,9.768-7.5,22.973-16.586,29.157s-23.418,6.358-29.458-2.537C157.742,197.579,149.349,178.044,148.9,165.587Z" transform="matrix(0.998, -0.07, 0.07, 0.998, 0, 17.123)" fill="#93876f"/></g><path d="M412.738,346.96c2.829-1.782-9.084,23.508-9.084,23.508s.521,16.638,3.732,16.694S394.017,370.3,394.017,370.3,409.909,348.742,412.738,346.96Z" transform="translate(319.612 438.218)" fill="#1267cf"/><path d="M36.05,3.193C32.7,7.938,16.979,19.6,11.427,26.473,3.194,36.663,0,52.185,0,52.185s10.525,6.431,11.427,14.91,11.079,37.853,11.079,37.853.271-8.446,0-21.78c-.154-7.35-4.4-30.575-3.122-39.393C22.483,22.32,45.629-10.365,36.05,3.193Z" transform="translate(727.175 271.124) rotate(1)" fill="#837863"/></g></g></svg>